<svg xmlns="http://www.w3.org/2000/svg" xmlns:xlink="http://www.w3.org/1999/xlink" viewBox="0 0 499.99999 500.001"><defs><style>.cls-1{isolation:isolate;}.cls-2{fill:#1c1c41;}.cls-10,.cls-11,.cls-12,.cls-14,.cls-15,.cls-3,.cls-4,.cls-5,.cls-7,.cls-8{mix-blend-mode:screen;}.cls-3{fill:url(#linear-gradient);}.cls-4{fill:url(#linear-gradient-2);}.cls-5{fill:url(#linear-gradient-3);}.cls-13,.cls-16,.cls-6,.cls-9{mix-blend-mode:multiply;opacity:0.37;}.cls-6{fill:url(#linear-gradient-4);}.cls-7,.cls-9{fill:url(#linear-gradient-6);}.cls-8{fill:url(#linear-gradient-7);}.cls-10{fill:url(#linear-gradient-10);}.cls-11{fill:url(#linear-gradient-11);}.cls-12{fill:url(#linear-gradient-12);}.cls-13{fill:url(#linear-gradient-13);}.cls-14,.cls-16{fill:url(#linear-gradient-15);}.cls-15{fill:url(#linear-gradient-16);}</style><linearGradient id="linear-gradient" x1="106.19836" y1="292.13467" x2="388.06449" y2="292.13467" gradientTransform="matrix(1, 0, 0, -1, 111.9355, 523.3679)" gradientUnits="userSpaceOnUse"><stop offset="0" stop-color="#882eff"/><stop offset="1" stop-color="#3e0b60"/></linearGradient><linearGradient id="linear-gradient-2" x1="106.19836" y1="244.83403" x2="388.06449" y2="244.83403" xlink:href="#linear-gradient"/><linearGradient id="linear-gradient-3" x1="106.19836" y1="244.83403" x2="388.06449" y2="244.83403" gradientTransform="matrix(1, 0, 0, -1, 111.9355, 523.3679)" gradientUnits="userSpaceOnUse"><stop offset="0" stop-color="#3e0b60"/><stop offset="0.02195" stop-color="#380a56"/><stop offset="0.09212" stop-color="#26073b"/><stop offset="0.17268" stop-color="#180425"/><stop offset="0.26678" stop-color="#0d0214"/><stop offset="0.38324" stop-color="#060109"/><stop offset="0.54656" stop-color="#010002"/><stop offset="1"/></linearGradient><linearGradient id="linear-gradient-4" x1="222.90722" y1="303.18841" x2="388.06449" y2="303.18841" xlink:href="#linear-gradient"/><linearGradient id="linear-gradient-6" x1="150.41402" y1="361.54279" x2="388.06449" y2="361.54279" xlink:href="#linear-gradient"/><linearGradient id="linear-gradient-7" x1="150.41402" y1="361.54279" x2="388.06449" y2="361.54279" gradientTransform="matrix(1, 0, 0, -1, 111.9355, 523.3679)" gradientUnits="userSpaceOnUse"><stop offset="0" stop-color="#882eff"/><stop offset="0.0561" stop-color="#7827dd"/><stop offset="0.1242" stop-color="#691fbc"/><stop offset="0.20016" stop-color="#5b199f"/><stop offset="0.28443" stop-color="#511488"/><stop offset="0.38073" stop-color="#481076"/><stop offset="0.49617" stop-color="#420d69"/><stop offset="0.65001" stop-color="#3f0b62"/><stop offset="1" stop-color="#3e0b60"/></linearGradient><linearGradient id="linear-gradient-10" x1="158.31571" y1="302.08354" x2="440.1819" y2="302.08354" gradientTransform="matrix(-1, 0, 0, 1, 440.1819, -33.3161)" xlink:href="#linear-gradient"/><linearGradient id="linear-gradient-11" x1="158.31571" y1="254.7829" x2="440.1819" y2="254.7829" gradientTransform="matrix(-1, 0, 0, 1, 440.1819, -33.3161)" xlink:href="#linear-gradient"/><linearGradient id="linear-gradient-12" x1="158.31571" y1="254.7829" x2="440.1819" y2="254.7829" gradientTransform="matrix(-1, 0, 0, 1, 440.1819, -33.3161)" xlink:href="#linear-gradient-3"/><linearGradient id="linear-gradient-13" x1="275.02457" y1="313.13729" x2="440.1819" y2="313.13729" gradientTransform="matrix(-1, 0, 0, 1, 440.1819, -33.3161)" xlink:href="#linear-gradient"/><linearGradient id="linear-gradient-15" x1="202.53201" y1="371.49199" x2="440.1819" y2="371.49199" gradientTransform="matrix(-1, 0, 0, 1, 440.1819, -33.3161)" xlink:href="#linear-gradient"/><linearGradient id="linear-gradient-16" x1="202.53201" y1="371.49199" x2="440.1819" y2="371.49199" gradientTransform="matrix(-1, 0, 0, 1, 440.1819, -33.3161)" xlink:href="#linear-gradient-7"/></defs><g class="cls-1"><g id="OBJECTS"><path class="cls-2" d="M24.12329.0005H475.87666A24.12333,24.12333,0,0,1,500,24.12383V475.8772a24.1233,24.1233,0,0,1-24.1233,24.1233H24.12329A24.1233,24.1233,0,0,1,0,475.8772V24.1238A24.1233,24.1233,0,0,1,24.12329.0005Z"/><polygon class="cls-3" points="356.951 209.126 262.35 114.524 405.399 114.524 500 209.126 361.183 347.942 218.134 347.942 356.951 209.126"/><polygon class="cls-4" points="500 209.126 356.951 209.126 218.134 347.942 500 209.126"/><polygon class="cls-5" points="500 209.126 356.951 209.126 218.134 347.942 500 209.126"/><polygon class="cls-6" points="500 209.126 356.951 209.126 334.843 231.233 500 209.126"/><polygon class="cls-4" points="500 209.126 346.818 278.534 218.134 347.942 500 209.126"/><polygon class="cls-7" points="500 209.126 405.399 114.524 262.35 114.524 500 209.126"/><polygon class="cls-8" points="500 209.126 405.399 114.524 262.35 114.524 500 209.126"/><polygon class="cls-9" points="500 209.126 356.951 209.126 262.35 114.524 500 209.126"/><polygon class="cls-7" points="500 209.126 381.175 156.491 262.35 114.524 500 209.126"/><polygon class="cls-10" points="143.049 290.875 237.65 385.477 94.601 385.477 0 290.875 138.817 152.058 281.866 152.058 143.049 290.875"/><polygon class="cls-11" points="0 290.875 143.049 290.875 281.866 152.058 0 290.875"/><polygon class="cls-12" points="0 290.875 143.049 290.875 281.866 152.058 0 290.875"/><polygon class="cls-13" points="0 290.875 143.049 290.875 165.157 268.767 0 290.875"/><polygon class="cls-11" points="0 290.875 153.182 221.467 281.866 152.058 0 290.875"/><polygon class="cls-14" points="0 290.875 94.601 385.477 237.65 385.477 0 290.875"/><polygon class="cls-15" points="0 290.875 94.601 385.477 237.65 385.477 0 290.875"/><polygon class="cls-16" points="0 290.875 143.049 290.875 237.65 385.477 0 290.875"/><polygon class="cls-14" points="0 290.875 118.825 343.51 237.65 385.477 0 290.875"/></g></g></svg>